<svg width="40" height="40" viewBox="0 0 40 40" fill="none" xmlns="http://www.w3.org/2000/svg">
<path d="M20 18.3333H34.2217C34.295 18.975 34.3333 19.6333 34.3333 20.3067C34.3333 24.8633 32.7 28.7 29.87 31.3067C27.395 33.5917 24.0067 34.9317 19.9667 34.9317C18.0011 34.9325 16.0546 34.5461 14.2385 33.7943C12.4224 33.0426 10.7722 31.9404 9.38227 30.5506C7.99234 29.1608 6.8899 27.5107 6.13797 25.6947C5.38603 23.8786 4.99934 21.9322 5 19.9667C4.99913 18.001 5.38565 16.0544 6.13749 14.2381C6.88932 12.4219 7.99172 10.7716 9.38168 9.38168C10.7716 7.99172 12.4219 6.88932 14.2381 6.13749C16.0544 5.38565 18.001 4.99913 19.9667 5C24 5 27.3883 6.48334 29.98 8.89834L27.5433 11.3333C25.6133 9.46834 23.005 8.33333 20 8.33333C16.9058 8.33333 13.9383 9.5625 11.7504 11.7504C9.5625 13.9383 8.33333 16.9058 8.33333 20C8.33333 23.0942 9.5625 26.0617 11.7504 28.2496C13.9383 30.4375 16.9058 31.6667 20 31.6667C25.8783 31.6667 30.24 27.32 30.9617 21.6667H20V18.3333Z" fill="#111111"/>
</svg>
